<?xml version="1.0" standalone="no"?>
<!DOCTYPE svg PUBLIC "-//W3C//DTD SVG 20010904//EN"
 "http://www.w3.org/TR/2001/REC-SVG-20010904/DTD/svg10.dtd">
<svg version="1.0" xmlns="http://www.w3.org/2000/svg"
 width="355.000000pt" height="468.000000pt" viewBox="0 0 355.000000 468.000000"
 preserveAspectRatio="xMidYMid meet">

<g transform="translate(0.000000,463.000000) scale(0.100000,-0.100000)"
fill="#000000" stroke="none">
<path d="M2145 3733 c-45 -15 -95 -61 -515 -479 l-465 -464 157 -157 158 -158
353 353 353 353 154 -156 c85 -85 158 -155 163 -155 4 0 7 156 5 348 -3 323
-4 349 -22 377 -33 50 -89 106 -129 126 -53 28 -149 33 -212 12z"/>
<path d="M642 3084 c-87 -43 -141 -127 -150 -231 -4 -56 -1 -70 26 -126 27
-54 91 -122 482 -512 l450 -450 157 158 158 157 -355 355 -355 355 160 160
160 160 -341 0 -340 0 -52 -26z"/>
<path d="M2032 2917 c-83 -84 -152 -157 -152 -162 0 -5 156 -166 347 -357
l348 -348 -160 -160 -160 -160 334 0 c232 0 346 4 375 12 27 8 61 32 98 69 90
89 109 190 58 307 -16 37 -119 145 -473 500 -248 248 -454 452 -457 452 -3 0
-74 -69 -158 -153z"/>
<path d="M1795 2010 l-350 -350 -155 155 c-85 85 -159 155 -163 155 -5 0 -7
-150 -5 -332 3 -288 6 -338 21 -371 27 -62 72 -111 129 -142 45 -25 64 -29
128 -29 63 0 83 4 126 27 35 20 185 163 500 478 l449 449 -155 155 c-85 85
-159 155 -165 155 -6 0 -168 -157 -360 -350z"/>
</g>
</svg>
